<?xml version="1.0" encoding="UTF-8"?>
<svg width="95px" height="12px" viewBox="0 0 95 12" version="1.1" xmlns="http://www.w3.org/2000/svg" xmlns:xlink="http://www.w3.org/1999/xlink">
    <!-- Generator: Sketch 48.2 (47327) - http://www.bohemiancoding.com/sketch -->
    <title>Page 1</title>
    <desc>Created with Sketch.</desc>
    <defs>
        <filter x="0.0%" y="-0.0%" width="100.0%" height="100.0%" filterUnits="objectBoundingBox" id="filter-1">
            <feOffset dx="0" dy="0" in="SourceAlpha" result="shadowOffsetOuter1"></feOffset>
            <feColorMatrix values="0 0 0 0 0   0 0 0 0 0   0 0 0 0 0  0 0 0 0.8 0" type="matrix" in="shadowOffsetOuter1" result="shadowMatrixOuter1"></feColorMatrix>
            <feMerge>
                <feMergeNode in="shadowMatrixOuter1"></feMergeNode>
                <feMergeNode in="SourceGraphic"></feMergeNode>
            </feMerge>
        </filter>
        <polygon id="path-2" points="0 11.0518 94.271 11.0518 94.271 -0.0002 0 -0.0002"></polygon>
    </defs>
    <g id="Page-1" stroke="none" stroke-width="1" fill="none" fill-rule="evenodd">
        <g filter="url(#filter-1)">
            <path d="M3.5039,3.1192 L3.6479,2.9282 L6.5389,2.9282 C6.1949,3.4792 5.6989,3.9562 5.0519,4.3552 C4.4679,4.0042 3.9509,3.5922 3.5039,3.1192 M7.2119,2.8802 L7.2119,2.4242 L3.9949,2.4242 C4.1399,2.1832 4.2599,1.9322 4.3559,1.6682 L3.7559,1.5962 C3.3559,2.5632 2.5999,3.3842 1.4869,4.0562 L1.8479,4.5352 C2.3439,4.2312 2.7789,3.8842 3.1549,3.4912 C3.5479,3.9242 4.0029,4.3112 4.5239,4.6552 C3.6669,5.0882 2.5829,5.4352 1.2719,5.6992 L1.5599,6.2272 C2.9359,5.9162 4.0999,5.5002 5.0519,4.9792 C5.9069,5.4602 6.9399,5.8672 8.1479,6.2032 L8.4829,5.6992 C7.4109,5.4432 6.4429,5.0922 5.5789,4.6432 C6.3159,4.1472 6.8589,3.5592 7.2119,2.8802" id="Fill-1" fill="#FFFFFF"></path>
            <mask id="mask-3" fill="white">
                <use xlink:href="#path-2"></use>
            </mask>
            <g id="Clip-4"></g>
            <path d="M0.647,9.8878 L8.975,9.8878 L8.975,1.2598 L0.647,1.2598 L0.647,9.8878 Z M0,11.0158 L0.647,11.0158 L0.647,10.4758 L8.976,10.4758 L8.976,11.0158 L9.623,11.0158 L9.623,0.6588 L0,0.6588 L0,11.0158 Z" id="Fill-3" fill="#FFFFFF" mask="url(#mask-3)"></path>
            <path d="M2.376,8.0752 C4.023,8.4202 5.579,8.8802 7.044,9.4552 L7.26,8.9162 C5.779,8.3402 4.239,7.8952 2.64,7.5842 L2.376,8.0752 Z" id="Fill-5" fill="#FFFFFF" mask="url(#mask-3)"></path>
            <path d="M3.8994,5.8672 L3.5994,6.3112 C4.4634,6.6072 5.3034,7.0152 6.1194,7.5352 L6.4314,7.0552 C5.6554,6.5842 4.8114,6.1872 3.8994,5.8672" id="Fill-6" fill="#FFFFFF" mask="url(#mask-3)"></path>
            <path d="M18.6719,0.0713 L18.0239,0.0713 L18.0239,3.0843 L14.0389,3.0843 L14.0389,0.2273 L13.3919,0.2273 L13.3919,4.6683 C13.3669,7.3073 12.7829,9.2163 11.6399,10.3913 L12.1319,10.8113 C13.0519,9.8433 13.6439,8.4523 13.9069,6.6353 L18.8269,6.6353 L18.8269,11.0513 L19.4639,11.0513 L19.4639,6.0003 L13.9799,6.0003 C14.0119,5.4713 14.0309,5.0273 14.0389,4.6683 L14.0389,3.7313 L22.0679,3.7313 L22.0679,3.0843 L18.6719,3.0843 L18.6719,0.0713 Z" id="Fill-7" fill="#FFFFFF" mask="url(#mask-3)"></path>
            <path d="M25.752,2.7832 L25.176,3.0712 C25.592,3.6792 25.983,4.3722 26.352,5.1472 L26.903,4.8592 C26.535,4.0992 26.151,3.4072 25.752,2.7832" id="Fill-8" fill="#FFFFFF" mask="url(#mask-3)"></path>
            <path d="M29.8193,6.0479 L33.9833,6.0479 L33.9833,5.4109 L31.1153,5.4109 C31.5713,4.7319 31.9993,3.8959 32.3993,2.9029 L31.7633,2.6879 C31.4033,3.6549 30.9753,4.5639 30.4793,5.4109 L29.1353,5.4109 L29.1353,2.2079 L33.6473,2.2079 L33.6473,1.5709 L29.1353,1.5709 L29.1353,0.1189 L28.4873,0.1189 L28.4873,1.5709 L24.0843,1.5709 L24.0843,2.2079 L28.4873,2.2079 L28.4873,5.4109 L23.6153,5.4109 L23.6153,6.0479 L27.7923,6.0479 C27.0553,7.5039 25.5553,8.7829 23.2923,9.8879 L23.6513,10.4639 C26.0273,9.2389 27.5883,7.7679 28.3313,6.0479 L28.4873,6.0479 L28.4873,11.0039 L29.1353,11.0039 L29.1353,6.0479 L29.2793,6.0479 C30.1353,7.6719 31.6593,9.1439 33.8513,10.4639 L34.2963,9.9109 C32.1753,8.7919 30.6833,7.5039 29.8193,6.0479" id="Fill-9" fill="#FFFFFF" mask="url(#mask-3)"></path>
            <path d="M37.5,4.1758 L44.123,4.1758 L44.123,2.1838 L37.5,2.1838 L37.5,4.1758 Z M37.5,6.8038 L44.123,6.8038 L44.123,4.7998 L37.5,4.7998 L37.5,6.8038 Z M37.5,9.5748 L44.123,9.5748 L44.123,7.4278 L37.5,7.4278 L37.5,9.5748 Z M40.68,0.1318 L40.02,0.0348 C39.892,0.5478 39.68,1.0558 39.384,1.5598 L36.852,1.5598 L36.852,11.0158 L37.5,11.0158 L37.5,10.1988 L44.123,10.1988 L44.123,11.0158 L44.771,11.0158 L44.771,1.5598 L40.067,1.5598 C40.331,1.1198 40.535,0.6438 40.68,0.1318 Z" id="Fill-10" fill="#FFFFFF" mask="url(#mask-3)"></path>
            <path d="M48.4678,3.6241 L47.9038,3.8151 C48.2388,5.3441 48.5158,6.9471 48.7318,8.6281 L49.2828,8.4831 C49.0518,6.7081 48.7798,5.0881 48.4678,3.6241" id="Fill-11" fill="#FFFFFF" mask="url(#mask-3)"></path>
            <path d="M51.5635,3.5879 L50.9275,3.5039 C50.7515,5.4639 50.4635,7.3159 50.0635,9.0599 C49.2395,9.2439 48.3595,9.4119 47.4235,9.5639 L47.5795,10.1879 C49.1315,9.9149 50.6075,9.5709 52.0075,9.1549 L52.0075,8.5199 C51.4955,8.6799 51.0555,8.8079 50.6875,8.9029 C51.0875,7.2319 51.3795,5.4599 51.5635,3.5879" id="Fill-12" fill="#FFFFFF" mask="url(#mask-3)"></path>
            <path d="M49.668,0.1553 L49.008,0.2633 C49.199,0.8403 49.38,1.4673 49.548,2.1473 L47.52,2.1473 L47.52,2.7713 L52.176,2.7713 L52.176,2.1473 L50.184,2.1473 C50.031,1.4913 49.859,0.8273 49.668,0.1553" id="Fill-13" fill="#FFFFFF" mask="url(#mask-3)"></path>
            <path d="M53.267,9.5038 L56.867,9.5038 L56.867,5.9998 L53.267,5.9998 L53.267,9.5038 Z M55.056,0.0598 L54.407,0.0598 L54.407,5.4108 L52.655,5.4108 L52.655,10.9548 L53.268,10.9548 L53.268,10.1148 L56.867,10.1148 L56.867,10.9438 L57.491,10.9438 L57.491,5.4108 L55.056,5.4108 L55.056,2.8918 L58.163,2.8918 L58.163,2.2428 L55.056,2.2428 L55.056,0.0598 Z" id="Fill-14" fill="#FFFFFF" mask="url(#mask-3)"></path>
            <path d="M61.1631,4.3077 C61.1551,5.3717 60.8951,6.1717 60.3841,6.7077 L60.3841,3.3837 L61.1631,3.3837 L61.1631,4.3077 Z M61.5591,3.3837 L62.3631,3.3837 L62.3631,5.8677 C62.3631,6.2517 62.5591,6.4437 62.9511,6.4437 L63.5631,6.4437 L63.5631,7.6797 L60.3841,7.6797 L60.3841,6.8397 L60.6471,7.0677 C61.2311,6.4997 61.5351,5.5787 61.5591,4.3077 L61.5591,3.3837 Z M61.5711,2.8327 L62.3871,2.8327 L62.3871,1.2357 L61.5711,1.2357 L61.5711,2.8327 Z M62.7711,3.3837 L63.5631,3.3837 L63.5631,5.9877 L63.0231,5.9877 C62.8551,5.9877 62.7711,5.9197 62.7711,5.7837 L62.7711,3.3837 Z M60.3831,9.7437 L63.5631,9.7437 L63.5631,8.2207 L60.3831,8.2207 L60.3831,9.7437 Z M59.4111,1.2357 L61.0561,1.2357 L61.0561,2.8317 L59.8311,2.8317 L59.8311,11.0157 L60.3841,11.0157 L60.3841,10.2957 L63.5631,10.2957 L63.5631,11.0157 L64.1151,11.0157 L64.1151,2.8317 L62.8921,2.8317 L62.8921,1.2357 L64.4641,1.2357 L64.4641,0.6357 L59.4111,0.6357 L59.4111,1.2357 Z" id="Fill-15" fill="#FFFFFF" mask="url(#mask-3)"></path>
            <path d="M67.8477,2.5791 L70.0197,2.5791 L70.0197,1.9911 L67.8477,1.9911 L67.8477,0.1191 L67.2467,0.1191 L67.2467,1.9911 L65.8557,1.9911 C65.9917,1.5841 66.1157,1.1031 66.2277,0.5521 L65.6627,0.4321 C65.4237,1.6321 65.0517,2.7121 64.5477,3.6721 L65.0517,3.9951 C65.2507,3.5881 65.4547,3.1151 65.6627,2.5791 L67.2467,2.5791 L67.2467,4.7161 L64.6317,4.7161 L64.6317,5.3151 L70.1877,5.3151 L70.1877,4.7161 L67.8477,4.7161 L67.8477,2.5791 Z" id="Fill-16" fill="#FFFFFF" mask="url(#mask-3)"></path>
            <path d="M65.819,9.8268 L69.059,9.8268 L69.059,7.2958 L65.819,7.2958 L65.819,9.8268 Z M65.22,11.0158 L65.819,11.0158 L65.819,10.4278 L69.06,10.4278 L69.06,11.0158 L69.672,11.0158 L69.672,6.6958 L65.22,6.6958 L65.22,11.0158 Z" id="Fill-17" fill="#FFFFFF" mask="url(#mask-3)"></path>
            <path d="M73.7871,4.7637 C73.2831,4.2597 72.6591,3.7557 71.9151,3.2517 L71.4601,3.6957 C72.2271,4.2237 72.8511,4.7357 73.3311,5.2317 L73.7871,4.7637 Z" id="Fill-18" fill="#FFFFFF" mask="url(#mask-3)"></path>
            <path d="M75.9355,1.7032 L81.9475,1.7032 L81.9475,1.0922 L76.2595,1.0922 C76.4275,0.7392 76.5675,0.4282 76.6795,0.1552 L76.0435,0.0002 C75.5315,1.2712 74.8555,2.3112 74.0155,3.1192 L74.4355,3.6242 C74.9795,3.1032 75.4795,2.4642 75.9355,1.7032" id="Fill-19" fill="#FFFFFF" mask="url(#mask-3)"></path>
            <path d="M78.623,8.3877 L79.044,7.9677 C78.628,7.5037 78.127,7.0557 77.544,6.6237 L77.123,7.0197 C77.756,7.5077 78.256,7.9637 78.623,8.3877" id="Fill-20" fill="#FFFFFF" mask="url(#mask-3)"></path>
            <path d="M73.9795,1.7998 C73.4915,1.3268 72.8635,0.8358 72.0955,0.3228 L71.6275,0.7788 C72.4435,1.3078 73.0715,1.7998 73.5115,2.2558 L73.9795,1.7998 Z" id="Fill-21" fill="#FFFFFF" mask="url(#mask-3)"></path>
            <path d="M71.5557,10.5957 L72.1677,10.8597 C72.8157,9.5717 73.3837,8.2517 73.8707,6.8997 L73.3077,6.6837 C72.7797,8.0837 72.1957,9.3877 71.5557,10.5957" id="Fill-22" fill="#FFFFFF" mask="url(#mask-3)"></path>
            <path d="M80.6035,5.6758 L75.8155,5.6758 C75.8715,4.9878 75.9185,4.2388 75.9595,3.4318 L80.6875,3.4318 L80.6035,5.6758 Z M80.4475,8.6518 L75.3955,8.6518 C75.5395,7.9238 75.6595,7.1358 75.7555,6.2868 L80.5795,6.2868 C80.5155,7.5278 80.4715,8.3158 80.4475,8.6518 Z M81.3235,2.8558 L75.3835,2.8558 C75.3595,3.8078 75.2995,4.7478 75.2035,5.6758 L73.8715,5.6758 L73.8715,6.2868 L75.1435,6.2868 C75.0235,7.2958 74.8675,8.2798 74.6755,9.2388 L80.3995,9.2388 C80.3675,9.4798 80.3345,9.6478 80.3035,9.7428 C80.1665,10.0478 79.9515,10.2478 79.6555,10.3438 C79.3515,10.4068 79.0275,10.4398 78.6835,10.4398 C78.4915,10.4398 78.1315,10.4318 77.6035,10.4158 L77.7955,11.0038 L78.7795,11.0038 C79.4115,11.0038 79.8955,10.9238 80.2315,10.7638 C80.5675,10.5718 80.7955,10.2868 80.9155,9.9108 C80.9395,9.8228 80.9755,9.5998 81.0235,9.2388 L82.1035,9.2388 L82.1035,8.6518 L81.0715,8.6518 L81.1915,6.2868 L82.2955,6.2868 L82.2955,5.6758 L81.2155,5.6758 L81.3235,2.8558 Z" id="Fill-23" fill="#FFFFFF" mask="url(#mask-3)"></path>
            <path d="M79.1758,5.0039 C78.7758,4.6039 78.2638,4.1949 77.6398,3.7789 L77.2198,4.1759 C77.8598,4.6149 78.3708,5.0309 78.7558,5.4239 L79.1758,5.0039 Z" id="Fill-24" fill="#FFFFFF" mask="url(#mask-3)"></path>
            <path d="M85.5234,5.5313 L85.9914,5.0753 C85.4154,4.4353 84.7354,3.8273 83.9514,3.2523 L83.4834,3.7083 C84.3154,4.3233 84.9954,4.9313 85.5234,5.5313" id="Fill-25" fill="#FFFFFF" mask="url(#mask-3)"></path>
            <path d="M85.8711,2.6514 L86.3401,2.1834 C85.7641,1.5764 85.0441,0.9604 84.1801,0.3364 L83.7121,0.7794 C84.6231,1.4354 85.3441,2.0594 85.8711,2.6514" id="Fill-26" fill="#FFFFFF" mask="url(#mask-3)"></path>
            <path d="M88.6553,2.0879 C88.7673,1.9359 88.8433,1.8279 88.8843,1.7639 L92.1473,1.7639 C91.6833,2.5559 91.0483,3.2749 90.2393,3.9239 C89.6073,3.3959 89.0793,2.7829 88.6553,2.0879 M90.7313,4.3079 C91.6433,3.5479 92.3553,2.6629 92.8673,1.6549 L92.8673,1.1629 L89.2313,1.1629 C89.4153,0.7959 89.5633,0.4429 89.6763,0.1079 L89.0513,-0.0001 C88.5953,1.3359 87.7193,2.4679 86.4243,3.3959 L86.8073,3.9109 C87.3363,3.5199 87.8233,3.0759 88.2713,2.5789 C88.6873,3.2349 89.1763,3.8119 89.7353,4.3079 C88.7833,4.9719 87.6073,5.5519 86.2083,6.0479 L86.6033,6.5639 C87.9953,6.0599 89.2033,5.4399 90.2273,4.7029 C91.2273,5.4559 92.4513,6.0309 93.8993,6.4319 L94.2713,5.8919 C92.8953,5.5309 91.7163,5.0039 90.7313,4.3079" id="Fill-27" fill="#FFFFFF" mask="url(#mask-3)"></path>
            <path d="M83.6396,10.7032 L84.2866,10.9912 C84.9276,9.6472 85.5036,8.2202 86.0156,6.7082 L85.4276,6.4792 C84.8996,8.0002 84.3036,9.4072 83.6396,10.7032" id="Fill-28" fill="#FFFFFF" mask="url(#mask-3)"></path>
            <path d="M88.331,9.8158 L92.172,9.8158 L92.172,7.2238 L88.331,7.2238 L88.331,9.8158 Z M87.708,10.9798 L88.331,10.9798 L88.331,10.4158 L92.172,10.4158 L92.172,10.9798 L92.796,10.9798 L92.796,6.6238 L87.708,6.6238 L87.708,10.9798 Z" id="Fill-29" fill="#FFFFFF" mask="url(#mask-3)"></path>
        </g>
    </g>
</svg>