<?xml version="1.0" encoding="utf-8"?>
<!-- Generator: Adobe Illustrator 19.0.0, SVG Export Plug-In . SVG Version: 6.00 Build 0)  -->
<svg version="1.1" id="图层_1" xmlns="http://www.w3.org/2000/svg" xmlns:xlink="http://www.w3.org/1999/xlink" x="0px" y="0px"
	 viewBox="0 0 17 17" style="enable-background:new 0 0 17 17;" xml:space="preserve">
<style type="text/css">
	.st0{fill:#EA4335;}
	.st1{fill:#FFFFFF;}
</style>
<polygon id="XMLID_3203_" class="st0" points="13.5,0.5 3.6,0.5 0.5,4.2 0.5,11 8.5,16.5 16.5,11 16.5,4.2 "/>
<g id="XMLID_26_">
	<path id="XMLID_29_" class="st1" d="M9.8,10.3c0-0.2,0-0.4,0.1-0.6H5.7V4.7h5.1l0,4.2c0.2-0.1,0.5-0.2,0.7-0.2c0.2,0,0.3,0,0.5,0.1
		V4.7c0-0.7-0.5-1.2-1.2-1.2H5.7C5,3.4,4.5,4,4.5,4.7v5.1c0,0.7,0.5,1.2,1.2,1.2h4.2C9.8,10.7,9.8,10.5,9.8,10.3z"/>
	<g id="XMLID_27_">
		<circle id="XMLID_28_" class="st1" cx="11.5" cy="10.3" r="1.1"/>
	</g>
</g>
</svg>
