<?xml version="1.0" encoding="UTF-8" standalone="no"?>
<svg width="16px" height="15px" viewBox="0 0 16 15" version="1.1" xmlns="http://www.w3.org/2000/svg" xmlns:xlink="http://www.w3.org/1999/xlink">
    <!-- Generator: Sketch 39.1 (31720) - http://www.bohemiancoding.com/sketch -->
    <title>收藏 默认吸顶</title>
    <desc>Created with Sketch.</desc>
    <defs/>
    <g id="Page-1" stroke="none" stroke-width="1" fill="none" fill-rule="evenodd">
        <g id="Desktop-HD" transform="translate(-764.000000, -388.000000)" fill="#999999">
            <path d="M771.999835,389.005989 L771.999835,389.005989 C771.945309,389.005989 771.846544,389.023091 771.78996,389.13375 L770.056432,392.56719 C769.872277,392.932364 769.516312,393.184867 769.105821,393.242209 L765.23136,393.793491 C765.104818,393.811598 765.057493,393.899119 765.041032,393.949419 C765.024571,394.000724 765.009139,394.098305 765.100703,394.18482 L767.904183,396.856727 C768.201506,397.141422 768.337307,397.548847 768.268378,397.950237 L767.605831,401.725714 C767.584226,401.852468 767.663443,401.923894 767.699451,401.949043 C767.74369,401.979223 767.835253,402.024492 767.945335,401.966145 L771.412391,400.184539 C771.779672,399.996419 772.219998,399.996419 772.58728,400.184539 L776.053307,401.966145 C776.165446,402.023486 776.25701,401.979223 776.301248,401.949043 C776.345486,401.917858 776.415445,401.847438 776.39384,401.725714 L775.731293,397.951243 C775.662363,397.548847 775.798165,397.141422 776.094459,396.857733 L778.899997,394.18482 C778.993617,394.095287 778.972013,393.990664 778.958638,393.949419 C778.942177,393.899119 778.894853,393.811598 778.769339,393.793491 L774.89385,393.242209 C774.483358,393.184867 774.127394,392.932364 773.943238,392.568196 L772.210739,389.13375 C772.152098,389.019067 772.044074,389.005989 771.999835,389.005989 M767.095546,402.763894 C766.703573,402.485235 766.510159,402.021475 766.591434,401.555702 L767.253981,397.780225 C767.266327,397.705782 767.241635,397.629327 767.185051,397.577015 L764.3826,394.905108 C764.034866,394.574138 763.913468,394.089251 764.062644,393.638568 C764.212848,393.187885 764.603792,392.865969 765.082184,392.798567 L768.957674,392.247286 C769.033805,392.23622 769.100677,392.189944 769.134627,392.121537 L770.867127,388.689102 C771.081117,388.264575 771.514242,388 771.998806,388 C772.4844,388 772.918554,388.263569 773.133573,388.688096 L774.865043,392.122543 C774.898994,392.189944 774.965866,392.23622 775.041997,392.247286 L778.918515,392.798567 C779.396907,392.865969 779.786822,393.187885 779.937027,393.638568 C780.086203,394.088245 779.964805,394.574138 779.618099,394.905108 L776.81359,397.578021 C776.758035,397.629327 776.733344,397.705782 776.74569,397.781231 L777.408237,401.554696 C777.489512,402.021475 777.297126,402.484229 776.906182,402.762888 C776.51421,403.041547 776.003925,403.076757 775.574915,402.856445 L772.108888,401.074839 C772.040987,401.039629 771.958683,401.039629 771.890782,401.074839 L768.423727,402.856445 C768.238543,402.952014 768.035869,402.999296 767.835253,402.999296 C767.574967,402.999296 767.316738,402.919823 767.095546,402.763894 Z" id="收藏-copy-3"/>
        </g>
    </g>
</svg>